<svg version="1.1" id="Layer_1" xmlns="http://www.w3.org/2000/svg" x="0" y="0" viewBox="0 0 400 300" xml:space="preserve"><style type="text/css">.st0{fill:#fff}</style><ellipse transform="rotate(-44.51 16.116 281.648)" class="st0" cx="16.1" cy="281.6" rx="6.3" ry="6.3"/><ellipse transform="rotate(-44.514 40.24 286.662)" class="st0" cx="40.2" cy="286.7" rx="5.3" ry="5.3"/><ellipse transform="rotate(-44.514 30.653 276.912)" class="st0" cx="30.7" cy="276.9" rx="5.3" ry="5.3"/><ellipse transform="rotate(-44.51 21.075 267.19)" class="st0" cx="21.1" cy="267.2" rx="5.9" ry="5.9"/><ellipse transform="rotate(-44.522 11.488 257.425)" class="st0" cx="11.5" cy="257.4" rx="6.1" ry="6.1"/><ellipse transform="rotate(-44.522 54.788 281.961)" class="st0" cx="54.8" cy="282" rx="4.8" ry="4.8"/><ellipse transform="rotate(-44.518 45.2 272.224)" class="st0" cx="45.2" cy="272.2" rx="4.9" ry="4.9"/><ellipse transform="rotate(-44.514 35.608 262.451)" class="st0" cx="35.6" cy="262.5" rx="5" ry="5"/><ellipse transform="rotate(-44.522 26.03 252.718)" class="st0" cx="26" cy="252.7" rx="5.1" ry="5.1"/><ellipse transform="rotate(-44.518 16.442 242.979)" class="st0" cx="16.4" cy="243" rx="5.2" ry="5.2"/><ellipse transform="rotate(-44.522 6.853 233.208)" class="st0" cx="6.9" cy="233.2" rx="5.3" ry="5.3"/><ellipse transform="rotate(-44.526 78.913 287.01)" class="st0" cx="78.9" cy="287" rx="3.8" ry="3.8"/><ellipse transform="rotate(-44.514 69.32 277.239)" class="st0" cx="69.3" cy="277.3" rx="3.9" ry="3.9"/><ellipse transform="rotate(-44.542 59.749 267.523)" class="st0" cx="59.7" cy="267.5" rx="4" ry="4"/><ellipse transform="rotate(-44.502 50.154 257.762)" class="st0" cx="50.2" cy="257.8" rx="4.1" ry="4.1"/><ellipse transform="rotate(-44.522 40.564 247.991)" class="st0" cx="40.6" cy="248" rx="4.1" ry="4.1"/><ellipse transform="rotate(-44.529 30.987 238.25)" class="st0" cx="31" cy="238.3" rx="4.2" ry="4.2"/><ellipse transform="rotate(-44.514 21.399 228.508)" class="st0" cx="21.4" cy="228.5" rx="4.8" ry="4.8"/><ellipse transform="rotate(-44.522 11.811 218.751)" class="st0" cx="11.8" cy="218.8" rx="4.9" ry="4.9"/><ellipse transform="rotate(-44.473 93.451 282.282)" class="st0" cx="93.5" cy="282.3" rx="3" ry="3"/><ellipse transform="rotate(-44.514 83.861 272.528)" class="st0" cx="83.9" cy="272.5" rx="3.5" ry="3.5"/><ellipse transform="rotate(-44.518 74.284 262.804)" class="st0" cx="74.3" cy="262.8" rx="3.6" ry="3.6"/><ellipse transform="rotate(-44.514 64.703 253.048)" class="st0" cx="64.7" cy="253" rx="3.7" ry="3.7"/><ellipse transform="rotate(-44.518 55.118 243.314)" class="st0" cx="55.1" cy="243.3" rx="3.8" ry="3.8"/><ellipse transform="rotate(-44.522 45.528 233.549)" class="st0" cx="45.5" cy="233.5" rx="3.9" ry="3.9"/><ellipse transform="rotate(-44.514 35.945 223.803)" class="st0" cx="35.9" cy="223.8" rx="4" ry="4"/><ellipse transform="rotate(-44.518 26.358 214.066)" class="st0" cx="26.4" cy="214.1" rx="4.1" ry="4.1"/><path class="st0" d="M19.8 201.4a4.05 4.05 0 0 0-5.9 0c-1.7 1.6-1.7 4.3-.1 5.9 1.6 1.7 4.3 1.7 6 0 1.6-1.6 1.6-4.3 0-5.9z"/><ellipse transform="rotate(-44.514 7.18 194.539)" class="st0" cx="7.2" cy="194.6" rx="4.3" ry="4.3"/><ellipse transform="rotate(-44.506 117.584 287.327)" class="st0" cx="117.6" cy="287.3" rx="2.7" ry="2.7"/><ellipse transform="rotate(-44.529 108 277.57)" class="st0" cx="108" cy="277.6" rx="2.7" ry="2.7"/><ellipse transform="rotate(-44.518 98.417 267.844)" class="st0" cx="98.4" cy="267.8" rx="2.8" ry="2.8"/><ellipse transform="rotate(-44.506 88.818 258.07)" class="st0" cx="88.8" cy="258.1" rx="2.9" ry="2.9"/><ellipse transform="rotate(-44.51 79.242 248.345)" class="st0" cx="79.2" cy="248.3" rx="3" ry="3"/><ellipse transform="rotate(-44.522 69.651 238.58)" class="st0" cx="69.7" cy="238.6" rx="3" ry="3"/><ellipse transform="rotate(-44.526 60.074 228.852)" class="st0" cx="60.1" cy="228.8" rx="3.1" ry="3.1"/><ellipse transform="rotate(-44.514 50.48 219.08)" class="st0" cx="50.5" cy="219.1" rx="3.5" ry="3.5"/><ellipse transform="rotate(-44.518 40.897 209.347)" class="st0" cx="40.9" cy="209.3" rx="3.6" ry="3.6"/><ellipse transform="rotate(-44.514 31.31 199.587)" class="st0" cx="31.3" cy="199.6" rx="3.8" ry="3.8"/><ellipse transform="rotate(-44.526 21.723 189.845)" class="st0" cx="21.7" cy="189.8" rx="3.5" ry="3.5"/><ellipse transform="rotate(-44.514 12.136 180.083)" class="st0" cx="12.1" cy="180.1" rx="3.6" ry="3.6"/><ellipse transform="rotate(-44.485 132.135 282.634)" class="st0" cx="132.1" cy="282.6" rx="2.6" ry="2.6"/><ellipse transform="rotate(-44.522 122.523 272.85)" class="st0" cx="122.5" cy="272.9" rx="2.6" ry="2.6"/><ellipse transform="rotate(-44.51 112.951 263.127)" class="st0" cx="112.9" cy="263.1" rx="2.7" ry="2.7"/><ellipse transform="rotate(-44.518 103.376 253.387)" class="st0" cx="103.4" cy="253.4" rx="2.8" ry="2.8"/><ellipse transform="rotate(-44.526 93.785 243.634)" class="st0" cx="93.8" cy="243.6" rx="2.9" ry="2.9"/><ellipse transform="rotate(-44.522 84.2 233.877)" class="st0" cx="84.2" cy="233.9" rx="3" ry="3"/><ellipse transform="rotate(-44.522 74.597 224.11)" class="st0" cx="74.6" cy="224.1" rx="2.9" ry="2.9"/><ellipse transform="rotate(-44.514 65.028 214.38)" class="st0" cx="65" cy="214.4" rx="3" ry="3"/><ellipse transform="rotate(-44.526 55.442 204.64)" class="st0" cx="55.4" cy="204.6" rx="3.1" ry="3.1"/><ellipse transform="rotate(-44.529 45.855 194.873)" class="st0" cx="45.9" cy="194.9" rx="2.7" ry="2.7"/><ellipse transform="rotate(-44.522 36.26 185.117)" class="st0" cx="36.3" cy="185.1" rx="2.8" ry="2.8"/><ellipse transform="rotate(-44.49 26.681 175.381)" class="st0" cx="26.7" cy="175.4" rx="2.9" ry="2.9"/><ellipse transform="rotate(-44.526 17.093 165.637)" class="st0" cx="17.1" cy="165.6" rx="3.5" ry="3.5"/><ellipse transform="rotate(-44.518 7.508 155.89)" class="st0" cx="7.5" cy="155.9" rx="3.6" ry="3.6"/><ellipse transform="rotate(-44.553 156.245 287.638)" class="st0" cx="156.2" cy="287.7" rx="1.9" ry="1.9"/><ellipse transform="rotate(-44.526 146.667 277.915)" class="st0" cx="146.7" cy="277.9" rx="2" ry="2"/><ellipse transform="rotate(-44.514 137.082 268.156)" class="st0" cx="137.1" cy="268.2" rx="2" ry="2"/><ellipse transform="rotate(-44.542 127.5 258.422)" class="st0" cx="127.5" cy="258.4" rx="2.1" ry="2.1"/><ellipse transform="rotate(-44.522 117.9 248.65)" class="st0" cx="117.9" cy="248.7" rx="2.2" ry="2.2"/><ellipse transform="rotate(-44.514 108.316 238.903)" class="st0" cx="108.3" cy="238.9" rx="2.5" ry="2.5"/><path class="st0" d="M100.5 227.4c-1-1-2.6-1-3.5 0-1 1-1 2.6 0 3.5 1 1 2.6 1 3.5 0 1-.9 1-2.5 0-3.5z"/><ellipse transform="rotate(-44.537 89.148 219.401)" class="st0" cx="89.1" cy="219.4" rx="2.6" ry="2.6"/><ellipse transform="rotate(-44.553 79.57 209.662)" class="st0" cx="79.6" cy="209.7" rx="2.2" ry="2.2"/><ellipse transform="rotate(-44.514 69.97 199.904)" class="st0" cx="70" cy="199.9" rx="2.5" ry="2.5"/><ellipse transform="rotate(-44.518 60.397 190.179)" class="st0" cx="60.4" cy="190.2" rx="2.6" ry="2.6"/><ellipse transform="rotate(-44.502 50.806 180.422)" class="st0" cx="50.8" cy="180.4" rx="2.7" ry="2.7"/><ellipse transform="rotate(-44.529 41.224 170.666)" class="st0" cx="41.2" cy="170.7" rx="2.7" ry="2.7"/><ellipse transform="rotate(-44.49 31.635 160.919)" class="st0" cx="31.6" cy="160.9" rx="2.8" ry="2.8"/><ellipse transform="rotate(-44.518 22.048 151.177)" class="st0" cx="22" cy="151.2" rx="2.9" ry="2.9"/><ellipse transform="rotate(-44.522 12.463 141.422)" class="st0" cx="12.5" cy="141.4" rx="3" ry="3"/><ellipse transform="rotate(-44.506 180.361 292.675)" class="st0" cx="180.4" cy="292.7" rx="1.7" ry="1.7"/><ellipse transform="rotate(-44.506 170.778 282.93)" class="st0" cx="170.8" cy="282.9" rx="1.7" ry="1.7"/><ellipse transform="rotate(-44.529 161.208 273.183)" class="st0" cx="161.2" cy="273.2" rx="1.7" ry="1.7"/><ellipse transform="rotate(-44.529 151.625 263.436)" class="st0" cx="151.6" cy="263.4" rx="1.7" ry="1.7"/><ellipse transform="rotate(-44.502 142.04 253.707)" class="st0" cx="142" cy="253.7" rx="1.7" ry="1.7"/><path class="st0" d="M133.6 242.8c-.6-.7-1.7-.7-2.4 0-.7.6-.7 1.7 0 2.4.6.7 1.7.7 2.4 0s.7-1.8 0-2.4z"/><ellipse transform="rotate(-44.537 122.858 234.185)" class="st0" cx="122.9" cy="234.2" rx="2" ry="2"/><ellipse transform="rotate(-44.522 113.276 224.447)" class="st0" cx="113.3" cy="224.5" rx="2.1" ry="2.1"/><ellipse transform="rotate(-44.485 103.698 214.713)" class="st0" cx="103.7" cy="214.7" rx="1.8" ry="1.8"/><ellipse transform="rotate(-44.55 94.112 204.964)" class="st0" cx="94.1" cy="205" rx="1.9" ry="1.9"/><ellipse transform="rotate(-44.51 84.52 195.211)" class="st0" cx="84.5" cy="195.2" rx="1.9" ry="1.9"/><ellipse transform="rotate(-44.545 74.94 185.453)" class="st0" cx="74.9" cy="185.5" rx="2" ry="2"/><ellipse transform="rotate(-44.537 65.347 175.698)" class="st0" cx="65.3" cy="175.7" rx="2" ry="2"/><ellipse transform="rotate(-44.514 55.76 165.953)" class="st0" cx="55.8" cy="166" rx="2.5" ry="2.5"/><ellipse transform="rotate(-44.502 46.18 156.218)" class="st0" cx="46.2" cy="156.2" rx="2.6" ry="2.6"/><ellipse transform="rotate(-44.502 36.59 146.464)" class="st0" cx="36.6" cy="146.5" rx="2.7" ry="2.7"/><ellipse transform="rotate(-44.498 27.006 136.713)" class="st0" cx="27" cy="136.7" rx="2.7" ry="2.7"/><ellipse transform="rotate(-44.506 17.418 126.96)" class="st0" cx="17.4" cy="127" rx="2.8" ry="2.8"/><ellipse transform="rotate(-44.526 7.836 117.224)" class="st0" cx="7.8" cy="117.2" rx="2.5" ry="2.5"/><ellipse transform="rotate(-44.553 194.932 287.979)" class="st0" cx="194.9" cy="288" rx="1.4" ry="1.4"/><ellipse transform="rotate(-44.494 185.35 278.249)" class="st0" cx="185.3" cy="278.2" rx="1.5" ry="1.5"/><ellipse transform="rotate(-44.537 175.738 268.464)" class="st0" cx="175.7" cy="268.5" rx="1.5" ry="1.5"/><ellipse transform="rotate(-44.522 166.16 258.73)" class="st0" cx="166.2" cy="258.7" rx="1.6" ry="1.6"/><ellipse transform="rotate(-44.481 156.566 248.975)" class="st0" cx="156.6" cy="249" rx="1.6" ry="1.6"/><ellipse transform="rotate(-44.526 147.003 239.253)" class="st0" cx="147" cy="239.2" rx="1.7" ry="1.7"/><ellipse transform="rotate(-44.506 137.392 229.477)" class="st0" cx="137.4" cy="229.5" rx="1.7" ry="1.7"/><ellipse transform="rotate(-44.537 127.821 219.733)" class="st0" cx="127.8" cy="219.7" rx="1.7" ry="1.7"/><ellipse transform="rotate(-44.526 118.238 210.002)" class="st0" cx="118.2" cy="210" rx="1.7" ry="1.7"/><ellipse transform="rotate(-44.49 108.64 200.233)" class="st0" cx="108.6" cy="200.2" rx="1.8" ry="1.8"/><ellipse transform="rotate(-44.502 99.065 190.501)" class="st0" cx="99.1" cy="190.5" rx="1.8" ry="1.8"/><ellipse transform="rotate(-44.498 89.469 180.736)" class="st0" cx="89.5" cy="180.7" rx="1.9" ry="1.9"/><path class="st0" d="M81.3 169.6c-.8-.8-2-.8-2.8 0-.8.8-.8 2 0 2.8.8.8 2 .8 2.8 0 .7-.8.8-2 0-2.8z"/><ellipse transform="rotate(-44.526 70.304 161.253)" class="st0" cx="70.3" cy="161.2" rx="2" ry="2"/><ellipse transform="rotate(-44.542 60.723 151.508)" class="st0" cx="60.7" cy="151.5" rx="2.1" ry="2.1"/><ellipse transform="rotate(-44.514 51.13 141.747)" class="st0" cx="51.1" cy="141.8" rx="2.1" ry="2.1"/><ellipse transform="rotate(-44.481 41.546 132)" class="st0" cx="41.5" cy="132" rx="2.2" ry="2.2"/><ellipse transform="rotate(-44.518 31.965 122.262)" class="st0" cx="32" cy="122.3" rx="2.2" ry="2.2"/><ellipse transform="rotate(-44.506 22.372 112.5)" class="st0" cx="22.4" cy="112.5" rx="2.5" ry="2.5"/><ellipse transform="rotate(-44.485 12.792 102.765)" class="st0" cx="12.8" cy="102.8" rx="2.6" ry="2.6"/><ellipse transform="rotate(-44.526 219.06 293.032)" class="st0" cx="219" cy="293" rx="1.1" ry="1.1"/><ellipse transform="rotate(-44.457 209.443 283.252)" class="st0" cx="209.5" cy="283.3" rx="1.1" ry="1.1"/><ellipse transform="rotate(-44.51 199.882 273.53)" class="st0" cx="199.9" cy="273.5" rx="1.2" ry="1.2"/><ellipse transform="rotate(-44.49 190.28 263.763)" class="st0" cx="190.3" cy="263.8" rx="1.2" ry="1.2"/><ellipse transform="rotate(-44.518 180.706 254.03)" class="st0" cx="180.7" cy="254" rx="1.3" ry="1.3"/><ellipse transform="rotate(-44.534 171.124 244.285)" class="st0" cx="171.1" cy="244.3" rx="1.3" ry="1.3"/><ellipse transform="rotate(-44.55 161.537 234.535)" class="st0" cx="161.5" cy="234.5" rx="1.3" ry="1.3"/><ellipse transform="rotate(-44.469 151.956 224.788)" class="st0" cx="151.9" cy="224.8" rx="1.3" ry="1.3"/><ellipse transform="rotate(-44.498 142.36 215.025)" class="st0" cx="142.4" cy="215" rx="1.3" ry="1.3"/><ellipse transform="rotate(-44.545 132.778 205.274)" class="st0" cx="132.8" cy="205.3" rx="1.4" ry="1.4"/><ellipse transform="rotate(-44.575 123.191 195.538)" class="st0" cx="123.2" cy="195.5" rx="1.4" ry="1.4"/><ellipse transform="rotate(-44.498 113.604 185.78)" class="st0" cx="113.6" cy="185.8" rx="1.4" ry="1.4"/><ellipse transform="rotate(-44.481 104.018 176.032)" class="st0" cx="104" cy="176" rx="1.4" ry="1.4"/><ellipse transform="rotate(-44.569 94.435 166.282)" class="st0" cx="94.4" cy="166.3" rx="1.4" ry="1.4"/><ellipse transform="rotate(-44.526 84.844 156.54)" class="st0" cx="84.8" cy="156.5" rx="1.5" ry="1.5"/><ellipse transform="rotate(-44.537 75.263 146.784)" class="st0" cx="75.3" cy="146.8" rx="1.7" ry="1.7"/><ellipse transform="rotate(-44.534 65.676 137.046)" class="st0" cx="65.7" cy="137" rx="1.8" ry="1.8"/><ellipse transform="rotate(-44.522 56.088 127.288)" class="st0" cx="56.1" cy="127.3" rx="1.8" ry="1.8"/><ellipse transform="rotate(-44.473 46.503 117.543)" class="st0" cx="46.5" cy="117.5" rx="1.9" ry="1.9"/><ellipse transform="rotate(-44.514 36.912 107.787)" class="st0" cx="36.9" cy="107.8" rx="1" ry="1"/><ellipse transform="rotate(-44.49 27.33 98.042)" class="st0" cx="27.3" cy="98" rx="1.1" ry="1.1"/><ellipse transform="rotate(-44.494 17.746 88.3)" class="st0" cx="17.7" cy="88.3" rx="2" ry="2"/><ellipse transform="rotate(-44.514 8.162 78.548)" class="st0" cx="8.2" cy="78.5" rx="2.1" ry="2.1"/><ellipse transform="rotate(-44.545 243.161 298.035)" class="st0" cx="243.2" cy="298.1" rx=".9" ry=".9"/><ellipse transform="rotate(-44.477 233.588 288.312)" class="st0" cx="233.6" cy="288.3" rx=".9" ry=".9"/><ellipse transform="rotate(-44.498 223.992 278.548)" class="st0" cx="224" cy="278.6" rx=".9" ry=".9"/><ellipse transform="rotate(-44.502 214.419 268.816)" class="st0" cx="214.4" cy="268.8" rx="1" ry="1"/><ellipse transform="rotate(-44.473 204.827 259.054)" class="st0" cx="204.8" cy="259.1" rx="1" ry="1"/><ellipse transform="rotate(-44.433 195.237 249.302)" class="st0" cx="195.2" cy="249.3" rx="1" ry="1"/><ellipse transform="rotate(-44.514 185.64 239.548)" class="st0" cx="185.7" cy="239.6" rx="1" ry="1"/><ellipse transform="rotate(-44.534 176.074 229.82)" class="st0" cx="176.1" cy="229.8" rx="1.1" ry="1.1"/><ellipse transform="rotate(-44.534 166.488 220.072)" class="st0" cx="166.5" cy="220.1" rx="1.1" ry="1.1"/><ellipse transform="rotate(-44.545 156.918 210.318)" class="st0" cx="156.9" cy="210.3" rx="1.1" ry="1.1"/><ellipse transform="rotate(-44.51 147.325 200.579)" class="st0" cx="147.3" cy="200.6" rx="1.1" ry="1.1"/><ellipse transform="rotate(-44.526 137.74 190.831)" class="st0" cx="137.7" cy="190.8" rx="1.1" ry="1.1"/><ellipse transform="rotate(-44.457 128.134 181.06)" class="st0" cx="128.1" cy="181.1" rx="1.1" ry="1.1"/><ellipse transform="rotate(-44.542 118.563 171.33)" class="st0" cx="118.6" cy="171.3" rx="1.2" ry="1.2"/><ellipse transform="rotate(-44.537 108.978 161.571)" class="st0" cx="109" cy="161.6" rx="1.2" ry="1.2"/><ellipse transform="rotate(-44.545 99.389 151.821)" class="st0" cx="99.4" cy="151.8" rx="1.2" ry="1.2"/><ellipse transform="rotate(-44.49 89.8 142.074)" class="st0" cx="89.8" cy="142.1" rx="1.2" ry="1.2"/><ellipse transform="rotate(-44.586 80.215 132.324)" class="st0" cx="80.2" cy="132.3" rx=".9" ry=".9"/><ellipse transform="rotate(-44.537 70.626 122.572)" class="st0" cx="70.6" cy="122.6" rx="1" ry="1"/><ellipse transform="rotate(-44.537 61.05 112.831)" class="st0" cx="61" cy="112.8" rx="1" ry="1"/><ellipse transform="rotate(-44.534 51.46 103.086)" class="st0" cx="51.5" cy="103.1" rx="1.1" ry="1.1"/><ellipse transform="rotate(-44.506 41.873 93.332)" class="st0" cx="41.9" cy="93.3" rx="1.2" ry="1.2"/><ellipse transform="rotate(-44.534 32.289 83.59)" class="st0" cx="32.3" cy="83.6" rx="1.3" ry="1.3"/><ellipse transform="rotate(-44.526 22.701 73.837)" class="st0" cx="22.7" cy="73.8" rx="1.5" ry="1.5"/><ellipse transform="rotate(-44.506 13.115 64.087)" class="st0" cx="13.1" cy="64.1" rx="1.6" ry="1.6"/><ellipse transform="rotate(-44.651 257.738 293.349)" class="st0" cx="257.7" cy="293.3" rx=".8" ry=".8"/><ellipse transform="rotate(-44.502 248.143 283.608)" class="st0" cx="248.1" cy="283.6" rx=".8" ry=".8"/><ellipse transform="rotate(-44.473 238.545 273.843)" class="st0" cx="238.5" cy="273.8" rx=".9" ry=".9"/><ellipse transform="rotate(-44.522 228.959 264.094)" class="st0" cx="229" cy="264.1" rx=".9" ry=".9"/><ellipse transform="rotate(-44.502 219.379 254.358)" class="st0" cx="219.4" cy="254.3" rx=".8" ry=".8"/><ellipse transform="rotate(-44.602 209.79 244.595)" class="st0" cx="209.8" cy="244.6" rx=".8" ry=".8"/><ellipse transform="rotate(-44.522 200.201 234.85)" class="st0" cx="200.2" cy="234.9" rx=".9" ry=".9"/><ellipse transform="rotate(-44.473 190.61 225.097)" class="st0" cx="190.6" cy="225.1" rx=".9" ry=".9"/><ellipse transform="rotate(-44.477 181.043 215.367)" class="st0" cx="181" cy="215.4" rx=".9" ry=".9"/><ellipse transform="rotate(-44.643 171.443 205.602)" class="st0" cx="171.4" cy="205.6" rx=".8" ry=".8"/><ellipse transform="rotate(-44.506 161.856 195.854)" class="st0" cx="161.9" cy="195.9" rx=".8" ry=".8"/><ellipse transform="rotate(-44.553 152.261 186.097)" class="st0" cx="152.3" cy="186.1" rx=".8" ry=".8"/><ellipse transform="rotate(-44.498 142.678 176.353)" class="st0" cx="142.7" cy="176.4" rx=".8" ry=".8"/><ellipse transform="rotate(-44.506 133.098 166.608)" class="st0" cx="133.1" cy="166.6" rx=".8" ry=".8"/><ellipse transform="rotate(-44.409 123.513 156.859)" class="st0" cx="123.5" cy="156.9" rx=".8" ry=".8"/><ellipse transform="rotate(-44.502 113.932 147.121)" class="st0" cx="113.9" cy="147.1" rx=".8" ry=".8"/><ellipse transform="rotate(-44.518 104.349 137.374)" class="st0" cx="104.3" cy="137.4" rx=".9" ry=".9"/><ellipse transform="rotate(-44.477 94.765 127.625)" class="st0" cx="94.8" cy="127.6" rx=".9" ry=".9"/><ellipse transform="rotate(-44.498 85.169 117.866)" class="st0" cx="85.2" cy="117.9" rx=".9" ry=".9"/><ellipse transform="rotate(-44.522 75.582 108.116)" class="st0" cx="75.6" cy="108.1" rx=".9" ry=".9"/><ellipse transform="rotate(-44.514 56.415 88.624)" class="st0" cx="56.4" cy="88.6" rx="1" ry="1"/><ellipse transform="rotate(-44.514 46.83 78.874)" class="st0" cx="46.8" cy="78.9" rx="1" ry="1"/><ellipse transform="rotate(-44.545 37.242 69.123)" class="st0" cx="37.2" cy="69.1" rx="1.1" ry="1.1"/><ellipse transform="rotate(-44.514 27.66 59.378)" class="st0" cx="27.7" cy="59.4" rx="1.3" ry="1.3"/><ellipse transform="rotate(-44.514 18.072 49.629)" class="st0" cx="18.1" cy="49.6" rx="1.4" ry="1.4"/><ellipse transform="rotate(-44.55 8.485 39.881)" class="st0" cx="8.5" cy="39.9" rx="1.5" ry="1.5"/><ellipse transform="rotate(-44.51 281.843 298.388)" class="st0" cx="281.8" cy="298.4" rx=".8" ry=".8"/><ellipse transform="rotate(-44.481 272.262 288.63)" class="st0" cx="272.3" cy="288.6" rx=".8" ry=".8"/><ellipse transform="rotate(-44.529 262.687 278.877)" class="st0" cx="262.7" cy="278.9" rx=".8" ry=".8"/><ellipse transform="rotate(-44.453 253.086 269.14)" class="st0" cx="253.1" cy="269.1" rx=".8" ry=".8"/><ellipse transform="rotate(-44.618 243.507 259.384)" class="st0" cx="243.5" cy="259.4" rx=".8" ry=".8"/><path class="st0" d="M234.5 249.1c-.3-.3-.8-.3-1.1 0-.3.3-.3.8 0 1.1.3.3.8.3 1.1 0 .2-.3.2-.8 0-1.1z"/><ellipse transform="rotate(-44.425 224.322 239.88)" class="st0" cx="224.3" cy="239.9" rx=".8" ry=".8"/><ellipse transform="rotate(-44.578 214.752 230.137)" class="st0" cx="214.7" cy="230.1" rx=".8" ry=".8"/><ellipse transform="rotate(-44.429 205.17 220.403)" class="st0" cx="205.2" cy="220.4" rx=".8" ry=".8"/><ellipse transform="rotate(-44.537 195.57 210.633)" class="st0" cx="195.6" cy="210.6" rx=".8" ry=".8"/><ellipse transform="rotate(-44.529 185.997 200.89)" class="st0" cx="186" cy="200.9" rx=".8" ry=".8"/><ellipse transform="rotate(-44.529 176.411 191.142)" class="st0" cx="176.4" cy="191.1" rx=".8" ry=".8"/><path class="st0" d="M167.4 180.8c-.3-.3-.8-.3-1.1 0-.3.3-.3.8 0 1.1.3.3.8.3 1.1 0 .3-.2.3-.7 0-1.1z"/><ellipse transform="rotate(-44.537 157.225 171.64)" class="st0" cx="157.2" cy="171.6" rx=".8" ry=".8"/><ellipse transform="rotate(-44.502 147.653 161.91)" class="st0" cx="147.6" cy="161.9" rx=".8" ry=".8"/><path class="st0" d="M138.6 151.6c-.3-.3-.8-.3-1.1 0-.3.3-.3.8 0 1.1.3.3.8.3 1.1 0 .3-.3.3-.8 0-1.1z"/><ellipse transform="rotate(-44.502 128.475 142.408)" class="st0" cx="128.5" cy="142.4" rx=".8" ry=".8"/><ellipse transform="rotate(-44.522 116.458 129.097)" class="st0" cx="116.5" cy="129.1" rx=".9" ry=".9"/><ellipse transform="rotate(-44.529 67.387 98.035)" class="st0" cx="67.4" cy="98" rx=".9" ry=".9"/><ellipse transform="rotate(-44.457 23.025 35.166)" class="st0" cx="23" cy="35.2" rx="1.1" ry="1.1"/><ellipse transform="rotate(-44.481 13.44 25.42)" class="st0" cx="13.4" cy="25.4" rx="1.5" ry="1.5"/><ellipse transform="rotate(-44.49 3.856 15.672)" class="st0" cx="3.9" cy="15.7" rx="1.1" ry="1.1"/><ellipse transform="rotate(-44.49 296.359 293.654)" class="st0" cx="296.4" cy="293.7" rx=".7" ry=".7"/><ellipse transform="rotate(-44.561 286.818 283.918)" class="st0" cx="286.8" cy="283.9" rx=".8" ry=".8"/><ellipse transform="rotate(-44.506 277.215 274.169)" class="st0" cx="277.2" cy="274.2" rx=".8" ry=".8"/><ellipse transform="rotate(-44.398 267.626 264.436)" class="st0" cx="267.6" cy="264.4" rx=".8" ry=".8"/><ellipse transform="rotate(-44.569 258.03 254.66)" class="st0" cx="258" cy="254.7" rx=".8" ry=".8"/><ellipse transform="rotate(-44.569 246.531 242.76)" class="st0" cx="246.5" cy="242.8" rx=".8" ry=".8"/><ellipse transform="rotate(-44.569 229.807 230.137)" class="st0" cx="229.8" cy="230.1" rx=".8" ry=".8"/><path class="st0" d="M36.2 50.5c-.3-.3-.8-.3-1.1 0-.3.3-.3.8 0 1.1.3.3.8.3 1.1 0 .3-.4.3-.8 0-1.1z"/><ellipse transform="rotate(-44.618 81.268 99.191)" class="st0" cx="81.3" cy="99.2" rx=".8" ry=".8"/><ellipse transform="rotate(-44.51 96.204 114.694)" class="st0" cx="96.2" cy="114.7" rx=".8" ry=".8"/><ellipse transform="rotate(-44.49 8.812 1.212)" class="st0" cx="8.8" cy="1.2" rx="1.2" ry="1.2"/><ellipse transform="rotate(-44.481 320.503 298.696)" class="st0" cx="320.5" cy="298.7" rx=".7" ry=".7"/><ellipse transform="rotate(-44.481 310.918 288.948)" class="st0" cx="310.9" cy="289" rx=".7" ry=".7"/><ellipse transform="rotate(-44.481 301.315 279.193)" class="st0" cx="301.3" cy="279.2" rx=".7" ry=".7"/><ellipse transform="rotate(-44.594 291.744 269.448)" class="st0" cx="291.7" cy="269.5" rx=".7" ry=".7"/><ellipse transform="rotate(-44.602 282.144 259.694)" class="st0" cx="282.2" cy="259.7" rx=".7" ry=".7"/><ellipse transform="rotate(-44.51 335.055 294.003)" class="st0" cx="335" cy="294" rx=".7" ry=".7"/><ellipse transform="rotate(-44.51 325.469 284.254)" class="st0" cx="325.5" cy="284.2" rx=".7" ry=".7"/><ellipse transform="rotate(-44.542 311.674 274.712)" class="st0" cx="311.7" cy="274.7" rx=".7" ry=".7"/><ellipse transform="rotate(-44.545 359.184 299.02)" class="st0" cx="359.2" cy="299" rx=".6" ry=".6"/><ellipse transform="rotate(-44.578 349.575 289.266)" class="st0" cx="349.6" cy="289.3" rx=".7" ry=".7"/><ellipse transform="rotate(-44.485 373.746 294.334)" class="st0" cx="373.7" cy="294.3" rx=".6" ry=".6"/><ellipse transform="rotate(-44.49 397.811 299.341)" class="st0" cx="397.8" cy="299.4" rx=".6" ry=".6"/></svg>