<?xml version="1.0" encoding="utf-8"?>
<!-- Generator: Adobe Illustrator 21.1.0, SVG Export Plug-In . SVG Version: 6.00 Build 0)  -->
<svg version="1.1" id="Layer_1" xmlns="http://www.w3.org/2000/svg" xmlns:xlink="http://www.w3.org/1999/xlink" x="0px" y="0px"
	 viewBox="0 0 500 500" style="enable-background:new 0 0 500 500;" xml:space="preserve">
<style type="text/css">
	.st0{fill:#9FFF60;}
</style>
<g>
	<path class="st0" d="M396.2,294.2c0-26-7.1-50.7-18.8-72.1c0,0,0,0,0-0.6c-18.8-33.1-50-57.8-87.1-68.2v-14.9
		c0-3.9-2.6-6.5-6.5-6.5h-28.6V65.5c0-3.9-2.6-6.5-6.5-6.5s-6.5,2.6-6.5,6.5v66.3h-24.7c-3.9,0-6.5,2.6-6.5,6.5v14.3
		c-37.7,10.4-69.5,35.1-88.4,67.6c-0.6,0.6-1.3,1.3-1.3,1.9c-12.3,21.4-18.8,46.1-18.8,72.1c0,80.6,65.6,146.2,146.2,146.8l0,0l0,0
		c0,0,0,0,0.6,0l0,0l0,0l0,0C330.6,441,396.2,375.4,396.2,294.2z M115.5,300.7h52.6c0.6,19.5,4.5,38.3,10.4,55.2h-48.1
		C122,339.7,116.8,320.8,115.5,300.7z M131.1,231.2h47.4c-6.5,17.5-10.4,37-11,57.2h-52.6C116.8,267.5,122,248.1,131.1,231.2z
		 M382.5,287.7h-53.9c-0.6-20.1-4.5-39-11-57.2h48.7C376,248.1,381.9,267.5,382.5,287.7z M316.3,287.7h-60.4v-57.2h48.1
		C311.1,248.7,315,267.5,316.3,287.7z M255.8,218.2v-51.3c17.5,13,32.5,31.2,42.2,51.3H255.8z M242.9,164.9v52.6h-44.2
		C209.1,196.7,224,178.5,242.9,164.9z M242.9,231.2v57.2h-61.7c0.6-20.1,4.5-39,11.7-57.2H242.9z M181.1,300.7h61.7v55.2h-50
		C185.7,339,181.8,320.2,181.1,300.7z M242.9,369.5v53.3c-18.8-13.6-33.8-31.8-44.2-53.3H242.9z M255.8,422.8v-53.3h43.5
		C289,390.3,274,409.2,255.8,422.8z M255.8,356.5v-55.2h60.4c-0.6,19.5-4.5,38.3-11,55.2H255.8z M329.3,300.7h53.9
		c-0.6,20.1-6.5,39-14.9,55.2h-48.7C324.7,339,328.6,320.2,329.3,300.7z M359.1,218.2H313c-9.7-21.4-24-40.3-40.9-55.2h1.9
		C308.5,169.4,339,189.6,359.1,218.2z M224,144.8h52.6v5.2h-1.3c-8.4-1.3-16.9-2.6-26-2.6c-8.4,0-16.9,0.6-24.7,1.9v-4.5H224z
		 M224.7,162.9L224.7,162.9c-16.9,14.9-30.5,33.8-40.3,55.2h-44.8C159,189.6,189.6,169.4,224.7,162.9z M138.3,369.5h45.5
		c9.7,22.1,24,41.6,42.2,56.5C189.6,419.6,158.4,398.8,138.3,369.5z M272.1,426.1c17.5-15.6,31.8-34.4,41.6-56.5h46.1
		C339.7,398.8,308.5,419.6,272.1,426.1z"/>
	<path class="st0" d="M387.7,173.3c1.9,0,3.2-0.6,4.5-1.9l32.5-31.8c2.6-2.6,2.6-6.5,0-9.1c-2.6-2.6-6.5-2.6-9.1,0l-32.5,31.8
		c-2.6,2.6-2.6,6.5,0,9.1C383.8,172.7,385.8,173.3,387.7,173.3z"/>
	<path class="st0" d="M418.9,222.1c1.3,2.6,3.2,3.9,5.8,3.9c0.6,0,1.3,0,2.6-0.6l42.9-16.2c3.2-1.3,5.2-5.2,3.9-8.4
		c-1.3-3.2-5.2-5.2-8.4-3.9L422.8,213C419.6,214.9,417.6,218.8,418.9,222.1z"/>
	<path class="st0" d="M392.3,393.6c-2.6-2.6-6.5-2.6-9.1,0c-2.6,2.6-2.6,6.5,0,9.1l32.5,31.8c1.3,1.3,2.6,1.9,4.5,1.9
		c1.9,0,3.2-0.6,4.5-1.9c2.6-2.6,2.6-6.5,0-9.1L392.3,393.6z"/>
	<path class="st0" d="M482.6,273.4C481.9,273.4,481.9,273.4,482.6,273.4l-45.5,0.6c-3.9,0-6.5,3.2-6.5,6.5c0,3.2,3.2,6.5,6.5,6.5
		l0,0l45.5-0.6c3.9,0,6.5-3.2,6.5-6.5C488.4,276.6,485.8,273.4,482.6,273.4z"/>
	<path class="st0" d="M469.6,355.9l-42.9-16.2c-3.2-1.3-7.1,0.6-8.4,3.9c-1.3,3.2,0.6,7.1,3.9,8.4l42.9,16.2c0.6,0,1.3,0.6,2.6,0.6
		c2.6,0,5.2-1.3,5.8-3.9C474.8,360.4,473.5,357.2,469.6,355.9z"/>
	<path class="st0" d="M107.1,171.4c1.3,1.3,2.6,1.9,4.5,1.9c1.9,0,3.2-0.6,4.5-1.9c2.6-2.6,2.6-6.5,0-9.1l-32.5-31.8
		c-2.6-2.6-6.5-2.6-9.1,0c-2.6,2.6-2.6,6.5,0,9.1L107.1,171.4z"/>
	<path class="st0" d="M29.1,209.7L72,226c0.6,0,1.3,0.6,2.6,0.6c2.6,0,5.2-1.3,5.8-3.9c1.3-3.2-0.6-7.1-3.9-8.4l-42.2-16.9
		c-3.2-1.3-7.1,0.6-8.4,3.9C24.6,204.5,25.9,208.4,29.1,209.7z"/>
	<path class="st0" d="M107.1,393.6l-32.5,31.8c-2.6,2.6-2.6,6.5,0,9.1c1.3,1.3,3.2,1.9,4.5,1.9c1.9,0,3.2-0.6,4.5-1.9l32.5-31.8
		c2.6-2.6,2.6-6.5,0-9.1C113.6,391,109.7,391,107.1,393.6z"/>
	<path class="st0" d="M62.9,287c3.2,0,6.5-2.6,6.5-6.5s-2.6-6.5-6.5-6.5l-45.5-0.6c-3.9,0-6.5,2.6-6.5,6.5s2.6,6.5,6.5,6.5L62.9,287
		C62.2,287,62.2,287,62.9,287z"/>
	<path class="st0" d="M80.4,342.9c-1.3-3.2-5.2-5.2-8.4-3.9l-42.9,16.2c-3.2,1.3-5.2,5.2-3.9,8.4c1.3,2.6,3.2,3.9,5.8,3.9
		c0.6,0,1.3,0,2.6-0.6l42.9-16.2C79.8,350,81.7,346.1,80.4,342.9z"/>
</g>
<g>
	<path class="st0" d="M382.3,220.8v-0.7l-0.7-1.1c-19.1-33.6-49.7-58.2-86.4-69.5v-11.2c0-6.7-4.8-11.5-11.5-11.5h-23.6V65.5
		c0-6.7-4.8-11.5-11.5-11.5s-11.5,4.8-11.5,11.5v61.3h-19.7c-6.7,0-11.5,4.8-11.5,11.5v10.5c-36.7,11.1-68.3,35.8-87.4,68.3
		c-0.7,0.8-1.6,1.8-2,3.2c-12.5,22-19.1,47.5-19.1,73.9c0,83,67.8,151.2,151.2,151.8h0.6c40.6,0,78.8-15.8,107.4-44.4
		c28.6-28.6,44.4-66.8,44.4-107.4C401.2,269.2,394.7,243.8,382.3,220.8z M333.4,282.7c-0.9-16-3.8-31.5-8.9-47.2h38.8
		c7.9,15,12.7,31.1,13.9,47.2H333.4z M260.8,282.7v-47.2h39.6c5.5,14.8,8.9,30.3,10.4,47.2H260.8z M260.8,213.2v-35.9
		c11.4,10,21.4,22.4,29,35.9H260.8z M316.2,213.2c-7.2-15-16.7-29.1-28.1-41.5c23.6,7.6,44.9,22.1,61,41.5H316.2z M349.8,374.5
		c-16,19.9-37.1,34.5-61.2,42.3c11.7-12.7,21.1-26.9,28.3-42.3H349.8z M260.8,374.5h30.2c-8.2,14.6-18.5,27.4-30.2,37.7V374.5z
		 M260.8,351.5v-45.2H311c-1,15.5-4.2,31-9.3,45.2H260.8z M377.9,305.7c-1.2,15.2-5.6,30.6-12.7,45.2h-39c4.3-15.5,7-30.7,7.8-45.2
		H377.9z M163.4,305.7c0.9,15.1,3.7,30.3,8.3,45.2h-38.1c-6.6-13.6-11-29.1-12.6-45.2H163.4z M180.5,374.5c7.3,15.6,16.8,29.9,28,42
		c-23.7-7.9-44.6-22.3-60.3-42H180.5z M237.9,374.5v38c-12.4-10.5-22.8-23.2-31-38H237.9z M237.9,305.7v45.2h-41.7
		c-5.5-13.9-8.8-29.1-9.8-45.2H237.9z M171.5,236.2c-4.9,15-7.9,31.1-8.8,47.2h-42.3c2.2-17.7,6.8-33.5,13.7-47.2H171.5z
		 M237.9,175.2v37.3H207C215.2,198.2,225.7,185.5,237.9,175.2z M149.5,213.2c15.1-18.8,35.6-33,58.6-40.7
		c-10.7,11.9-19.7,25.6-26.9,40.7H149.5z M237.9,236.2v47.2h-51.5c1-16.4,4.3-31.9,9.9-47.2H237.9z"/>
	<g>
		<path class="st0" d="M387.7,178.3c3.2,0,5.8-1.1,8-3.4l32.5-31.9c4.5-4.5,4.5-11.6,0-16.2c-4.5-4.5-11.6-4.5-16.1,0l-32.5,31.9
			c-4.4,4.4-4.5,11.1-0.5,15.7C380.8,176.9,383.9,178.3,387.7,178.3z"/>
		<path class="st0" d="M420.2,208.7c-5.5,3.3-8.1,9.9-6,15.2l0.2,0.4c2.1,4.3,5.8,6.7,10.3,6.7c1.2,0,2.5-0.1,4.6-1.1l42.7-16.2
			c5.9-2.4,9-9.2,6.7-14.9c-2.4-5.9-9.2-9-14.9-6.7l-43.3,16.4L420.2,208.7z"/>
		<path class="st0" d="M395.8,390c-4.5-4.5-11.6-4.5-16.1,0c-4.5,4.5-4.5,11.6,0,16.2l32.4,31.8c2.3,2.3,4.9,3.4,8.1,3.4
			s5.8-1.1,8.1-3.4c4.5-4.5,4.5-11.6,0-16.2L395.8,390z"/>
		<path class="st0" d="M494,278.9c-1-5.2-5.3-10.5-11.4-10.5l-45.5,0.6c-6.3,0-11.5,5.2-11.5,11.5c0,6,5.5,11.5,11.6,11.5l45.4-0.6
			c6.3,0,11.5-5.2,11.5-11.5v-0.5L494,278.9z"/>
		<path class="st0" d="M471.3,351.2L428.6,335c-5.7-2.3-12.6,0.8-14.9,6.7c-1.1,2.8-1,6.1,0.4,9c1.3,2.7,3.6,4.9,6.4,6l43.7,16.6
			h0.2c0.7,0.3,1.8,0.6,3.3,0.6c5.2,0,9.5-3,10.7-7.6C480.3,359.1,477.6,353.4,471.3,351.2z"/>
		<path class="st0" d="M103.6,174.9c2.3,2.3,4.9,3.4,8.1,3.4c3.2,0,5.8-1.1,8.1-3.4c4.5-4.5,4.5-11.6,0-16.2l-32.4-31.8
			c-4.5-4.5-11.6-4.5-16.2,0c-4.5,4.5-4.5,11.6,0,16.2L103.6,174.9z"/>
		<path class="st0" d="M27.3,214.4L71.1,231h0.2c0.7,0.3,1.8,0.6,3.3,0.6c5.1,0,9.3-2.9,10.6-7.4c2.1-5.7-1-12.3-6.8-14.6
			l-42.2-16.9c-5.7-2.3-12.6,0.8-14.9,6.7C18.8,205.4,21.5,212.1,27.3,214.4z"/>
		<path class="st0" d="M103.6,390l-32.5,31.9c-4.5,4.5-4.5,11.6,0,16.2c2.1,2.1,5.2,3.4,8.1,3.4c3.2,0,5.8-1.1,8-3.4l32.5-31.9
			c4.5-4.5,4.5-11.6,0-16.2C115.2,385.5,108.1,385.5,103.6,390z"/>
		<path class="st0" d="M62.9,292c6.3,0,11.5-5.2,11.5-11.5c0-6.7-4.8-11.5-11.4-11.5l-45.5-0.7c-6.7,0-11.5,4.8-11.5,11.5
			c0,6.7,4.8,11.5,11.4,11.5l45.1,0.6L62.9,292z"/>
		<path class="st0" d="M84.5,350.3c1.6-2.9,1.8-6.3,0.6-9.3c-2.4-5.9-9.2-9-14.9-6.7l-43,16.3c-2.7,1.1-5,3.3-6.3,6
			c-1.4,2.9-1.5,6.1-0.4,9l0.2,0.4c2.1,4.3,5.8,6.7,10.3,6.7c1.2,0,2.5-0.1,4.6-1.1l42.3-16C80.7,354.8,83.1,352.9,84.5,350.3z"/>
	</g>
</g>
</svg>
