<?xml version="1.0" encoding="utf-8"?>
<!-- Generator: Adobe Illustrator 21.1.0, SVG Export Plug-In . SVG Version: 6.00 Build 0)  -->
<svg version="1.1" id="hat" xmlns="http://www.w3.org/2000/svg" xmlns:xlink="http://www.w3.org/1999/xlink" x="0px" y="0px"
	 viewBox="0 0 80 60" style="enable-background:new 0 0 80 60;" xml:space="preserve">
<style type="text/css">
	.st0{fill:#9FFF60;}
</style>
<g id="Laag_2">
	<g id="Laag_1-2">
		<path class="st0" d="M35,34.2h2.1c0.1,0,0.2,0.1,0.2,0.2c0,0,0,0,0,0l-0.4,1.9c0,0.1,0,0.2,0.1,0.2c0,0,0,0,0,0h2.2
			c0.1,0,0.1-0.1,0.2-0.1l0.4-2c0-0.1,0.1-0.1,0.2-0.1h2.3c0.1,0,0.2,0.1,0.2,0.2c0,0,0,0,0,0L42,36.3c0,0.1,0,0.2,0.1,0.2
			c0,0,0,0,0,0h2.2c0.1,0,0.1-0.1,0.2-0.1l0.4-2c0-0.1,0.1-0.1,0.2-0.1h2.2c0.1,0,0.2-0.1,0.2-0.2v0v-2.2c0-0.1-0.1-0.2-0.2-0.2h0
			h-1.5c-0.1,0-0.2-0.1-0.2-0.2c0,0,0,0,0,0l0.5-2.1c0-0.1,0.1-0.1,0.2-0.1h2.1c0.1,0,0.2-0.1,0.2-0.2l0,0V27c0-0.1-0.1-0.2-0.2-0.2
			l0,0h-1.6c-0.1,0-0.2-0.1-0.2-0.1c0,0,0-0.1,0-0.1l0.4-1.8c0-0.1,0-0.2-0.1-0.2c0,0,0,0,0,0h-2.2c-0.1,0-0.1,0.1-0.2,0.1l-0.4,1.9
			c0,0.1-0.1,0.1-0.2,0.1h-2.4c-0.1,0-0.2-0.1-0.2-0.2c0,0,0,0,0,0l0.4-1.8c0-0.1,0-0.2-0.1-0.2c0,0,0,0,0,0h-2.2
			c-0.1,0-0.1,0.1-0.2,0.1l-0.4,1.9c0,0.1-0.1,0.1-0.2,0.1H36c-0.1,0-0.2,0.1-0.2,0.2v2.2c0,0.1,0.1,0.2,0.2,0.2h2.1
			c0.1,0,0.2,0.1,0.2,0.2c0,0,0,0,0,0l-0.5,2.1c0,0.1-0.1,0.1-0.2,0.1H35c-0.1,0-0.2,0.1-0.2,0.2l0,0V34
			C34.8,34.1,34.8,34.2,35,34.2C34.9,34.2,35,34.3,35,34.2z M40.9,29.4c0-0.1,0.1-0.1,0.2-0.1h2.3c0.1,0,0.2,0.1,0.2,0.2
			c0,0,0,0,0,0l-0.5,2.1c0,0.1-0.1,0.1-0.2,0.1h-2.4c-0.1,0-0.2-0.1-0.2-0.2c0,0,0,0,0,0L40.9,29.4z"/>
		<path class="st0" d="M63.6,39.6h-5.8V31c0-8.6-7-15.6-15.6-15.6c-0.4,0-0.8,0-1.1,0.1c0.1-0.4,0.2-0.9,0.2-1.3
			c0-2.7-2.2-4.8-4.8-4.8c-2.7,0-4.8,2.2-4.8,4.8c0,0.2,0,0.3,0,0.5c-9.2,0.8-16.2,8.4-16.2,17.6V48c0,1,0.8,1.8,1.8,1.8
			c0,0,0,0,0,0h10.8c0.1,0,0.3,0.1,0.4,0.1h35.2c2.8,0,5.1-2.3,5.1-5.1C68.7,41.9,66.4,39.6,63.6,39.6z M36.4,11.8
			c0.9,0,1.6,0.7,1.6,1.6c0,0.9-0.7,1.6-1.6,1.6c-0.9,0-1.6-0.7-1.6-1.6C34.7,12.6,35.5,11.8,36.4,11.8L36.4,11.8z M42.1,18.9
			c6.6,0,12,5.4,12,12l0,0v8.6h-24v-8.6C30.2,24.3,35.5,19,42.1,18.9z M26.5,31v10.4l0,0c0,0,0,0,0,0.1v4.7h-7.6v-14
			c0-7.7,6.3-14,14-14h0.3C29.1,21,26.5,25.8,26.5,31L26.5,31z M63.6,46.2H30.1v-3h33.4c0.8,0,1.5,0.7,1.5,1.5
			C65.1,45.5,64.4,46.2,63.6,46.2C63.6,46.2,63.6,46.2,63.6,46.2z"/>
	</g>
</g>
</svg>
