<?xml version="1.0" encoding="utf-8"?>
<!-- Generator: Adobe Illustrator 21.1.0, SVG Export Plug-In . SVG Version: 6.00 Build 0)  -->
<svg version="1.1" id="Layer_1" xmlns="http://www.w3.org/2000/svg" xmlns:xlink="http://www.w3.org/1999/xlink" x="0px" y="0px"
	 viewBox="0 0 100 100" style="enable-background:new 0 0 100 100;" xml:space="preserve">
<style type="text/css">
	.st0{fill:#9FFF60;stroke:#9FFF60;stroke-width:2;stroke-miterlimit:10;}
</style>
<path class="st0" d="M94,48.8H82.9c2.2-3.2,3.4-7,3.4-11c0-10.7-8.7-19.4-19.4-19.4c-7,0-13.5,3.9-16.9,10c-3.4-6-9.9-10-16.9-10
	c-10.7,0-19.4,8.7-19.4,19.4c0,4,1.2,7.7,3.4,11H6c-0.7,0-1.2,0.6-1.2,1.2s0.6,1.2,1.2,1.2h13.2l29.9,29.9c0.2,0.2,0.6,0.4,0.9,0.4
	s0.6-0.1,0.9-0.4l29.9-29.9H94c0.7,0,1.2-0.6,1.2-1.2S94.7,48.8,94,48.8z M16.2,37.8c0-9.3,7.6-16.9,16.9-16.9
	c6.9,0,13.2,4.4,15.7,10.8c0.2,0.5,0.6,0.8,1.2,0.8c0.5,0,1-0.3,1.2-0.8c2.5-6.5,8.8-10.8,15.7-10.8c9.3,0,16.9,7.6,16.9,16.9
	c0,4.1-1.4,8-4,11H65c-0.5,0-0.9,0.3-1.1,0.7l-3.6,6.9l-1.9-23.1c0-0.6-0.5-1.1-1.1-1.1C56.7,32,56.1,32.4,56,33l-4,14.6h-8.4
	c-0.5,0-1,0.4-1.2,0.9l-1.7,5.7L37,38.4c-0.1-0.5-0.6-0.9-1.2-1c-0.6,0-1.1,0.3-1.2,0.9l-3.4,10.5h-11
	C17.7,45.7,16.2,41.9,16.2,37.8z M50,78.5L22.7,51.2h9.5c0.5,0,1-0.3,1.2-0.9l2.3-7l3.7,15.9c0.1,0.6,0.6,0.9,1.2,1
	c0.6,0,1.1-0.3,1.2-0.9l2.8-9.3H53c0.6,0,1.1-0.4,1.2-0.9l2.3-8.6l1.7,20.3c0,0.6,0.5,1,1,1.1c0.1,0,0.2,0,0.2,0
	c0.5,0,0.9-0.3,1.1-0.7L65.7,51h11.5L50,78.5z"/>
</svg>
