<?xml version="1.0" encoding="utf-8"?>
<!-- Generator: Adobe Illustrator 21.1.0, SVG Export Plug-In . SVG Version: 6.00 Build 0)  -->
<svg version="1.1" id="hat" xmlns="http://www.w3.org/2000/svg" xmlns:xlink="http://www.w3.org/1999/xlink" x="0px" y="0px"
	 viewBox="0 0 80 60" style="enable-background:new 0 0 80 60;" xml:space="preserve">
<style type="text/css">
	.st0{fill:#9FFF60;}
</style>
<g id="Laag_2_3_">
	<g id="Laag_1-2_3_">
		<circle class="st0" cx="33.6" cy="26.6" r="1.9"/>
		<circle class="st0" cx="47.5" cy="26.6" r="1.9"/>
		<path class="st0" d="M59.3,23.6c-0.4,0-0.8,0-1.1,0.1c-2.2-5-6.3-8.9-11.5-10.7V9.3c0-0.8-0.6-1.4-1.4-1.4S44,8.6,44,9.3v2.9
			c-0.9-0.2-1.9-0.3-2.8-0.4v-6c0-0.8-0.6-1.4-1.4-1.4c-0.8,0-1.4,0.6-1.4,1.4v6c-1,0.1-1.9,0.2-2.8,0.4V9.3c0-0.8-0.6-1.4-1.4-1.4
			s-1.4,0.6-1.4,1.4v3.8c-5,1.9-9,5.7-11.2,10.6c-2.7-0.6-5.3,1-5.9,3.7c-0.6,2.7,1,5.3,3.7,5.9c0.2,0,0.4,0.1,0.6,0.1
			c1,11,10.6,19.1,21.6,18.1c9.6-0.8,17.3-8.5,18.1-18.1c2.7-0.2,4.7-2.6,4.5-5.3C64.1,25.5,61.9,23.5,59.3,23.6L59.3,23.6z
			 M59.3,30.7c-0.2,0-0.3,0-0.5-0.1l-1.7-0.4l0,1.7c0,9.5-7.7,17.2-17.2,17.2c-9.5,0-17.2-7.7-17.2-17.2c0,0,0,0,0,0l0-1.6l-1.6,0.3
			c-1.2,0.3-2.4-0.5-2.6-1.7c-0.3-1.2,0.5-2.4,1.7-2.6c0.2,0,0.3-0.1,0.5-0.1c0.4,0,0.8,0.1,1.1,0.3l1.4,0.8l0.6-1.5
			c1.6-4.4,4.9-7.9,9.1-9.8v0.7c0,0.8,0.6,1.4,1.4,1.4s1.4-0.6,1.4-1.4V15c0.9-0.2,1.9-0.4,2.8-0.5v2.1c0,0.8,0.6,1.4,1.4,1.4
			c0.8,0,1.4-0.6,1.4-1.4v-2.1c1,0.1,1.9,0.2,2.8,0.4v1.7c0,0.8,0.6,1.4,1.4,1.4s1.4-0.6,1.4-1.4v-0.8c4.4,1.9,7.8,5.5,9.4,10
			l0.6,1.6l1.4-0.9c1-0.7,2.4-0.4,3.1,0.6c0.7,1,0.4,2.4-0.6,3.1C60.2,30.6,59.8,30.7,59.3,30.7L59.3,30.7z"/>
		<path class="st0" d="M44.4,36.1c-0.8,0-1.4,0.6-1.4,1.4l0,0c-0.1,1.7-1.5,3-3.2,3c-1.6-0.1-2.9-1.4-3-3c0-0.8-0.6-1.4-1.4-1.4
			c-0.8,0-1.4,0.6-1.4,1.4c0,3.2,2.6,5.8,5.8,5.8s5.8-2.6,5.8-5.8C45.8,36.7,45.2,36.1,44.4,36.1C44.4,36.1,44.4,36.1,44.4,36.1z"/>
		<circle class="st0" cx="40" cy="31.7" r="1.9"/>
	</g>
</g>
</svg>
